<svg id="Layer_2" data-name="Layer 2" xmlns="http://www.w3.org/2000/svg" viewBox="0 0 260.61 208.78"><defs><style>.cls-1{fill:#c1c1c0;}.cls-2{fill:#e0e4e7;}</style></defs><title>Desktop</title><path id="_Rectangle_" data-name="&lt;Rectangle&gt;" d="M7.2,0H253.41a7.2,7.2,0,0,1,7.2,7.2V144a0,0,0,0,1,0,0H0a0,0,0,0,1,0,0V7.2A7.2,7.2,0,0,1,7.2,0Z"/><path id="_Path_" data-name="&lt;Path&gt;" class="cls-1" d="M201.95,367.06l1.57,14.75a16.1,16.1,0,0,0,4.62,9.68l11.32,11.32a.47.47,0,0,1-.33.8h-94a.46.46,0,0,1-.33-.79l11.6-11.6a15.72,15.72,0,0,0,4.55-9.79l1.21-14.36" transform="translate(-41.82 -196.03)"/><rect id="_Rectangle_2" data-name="&lt;Rectangle&gt;" class="cls-2" x="82.94" y="206.38" width="94.99" height="2.4" rx="0.78" ry="0.78"/><path id="_Rectangle_3" data-name="&lt;Rectangle&gt;" class="cls-2" d="M0,144H260.61a0,0,0,0,1,0,0v19.8a7.2,7.2,0,0,1-7.2,7.2H7.2a7.2,7.2,0,0,1-7.2-7.2V144a0,0,0,0,1,0,0Z"/></svg>